HIERARCHY
ROOT Hips
{
    OFFSET 0.000000 0.000000 0.000000
    CHANNELS 6 Xposition Yposition Zposition Zrotation Xrotation Yrotation
    JOINT Spine
    {
        OFFSET -0.000000 7.246840 0.000000
        CHANNELS 3 Zrotation Xrotation Yrotation
        JOINT Spine1
        {
            OFFSET -0.000000 20.289354 0.000000
            CHANNELS 3 Zrotation Xrotation Yrotation
            JOINT Neck
            {
                OFFSET -0.000000 20.206032 1.836912
                CHANNELS 3 Zrotation Xrotation Yrotation
                JOINT Head
                {
                    OFFSET -0.000000 12.372654 -1.767522
                    CHANNELS 3 Zrotation Xrotation Yrotation
                    End Site
                    {
                        OFFSET -0.000000 22.094025 0.000000
                    }
                }
            }
            JOINT LeftShoulder
            {
                OFFSET 3.465871 17.201674 -0.568930
                CHANNELS 3 Zrotation Xrotation Yrotation
                JOINT LeftArm
                {
                    OFFSET 14.070313 0.000000 0.000000
                    CHANNELS 3 Zrotation Xrotation Yrotation
                    JOINT LeftForeArm
                    {
                        OFFSET 26.549477 0.000000 0.000000
                        CHANNELS 3 Zrotation Xrotation Yrotation
                        JOINT LeftHand
                        {
                            OFFSET 18.880413 0.000000 0.000000
                            CHANNELS 3 Zrotation Xrotation Yrotation
                            End Site
                            {
                                OFFSET 13.256415 0.000000 0.000000
                            }
                        }
                    }
                }
            }
            JOINT RightShoulder
            {
                OFFSET -3.526370 17.201674 -0.568930
                CHANNELS 3 Zrotation Xrotation Yrotation
                JOINT RightArm
                {
                    OFFSET -14.070313 0.000000 0.000000
                    CHANNELS 3 Zrotation Xrotation Yrotation
                    JOINT RightForeArm
                    {
                        OFFSET -26.549477 0.000000 0.000000
                        CHANNELS 3 Zrotation Xrotation Yrotation
                        JOINT RightHand
                        {
                            OFFSET -18.880413 0.000000 0.000000
                            CHANNELS 3 Zrotation Xrotation Yrotation
                            End Site
                            {
                                OFFSET -13.256415 0.000000 0.000000
                            }
                        }
                    }
                }
            }
        }
    }
    JOINT LeftUpLeg
    {
        OFFSET 8.837609 0.000000 0.000000
        CHANNELS 3 Zrotation Xrotation Yrotation
        JOINT LeftLeg
        {
            OFFSET -0.000000 -41.345005 0.000000
            CHANNELS 3 Zrotation Xrotation Yrotation
            JOINT LeftFoot
            {
                OFFSET -0.000000 -35.500874 0.000000
                CHANNELS 3 Zrotation Xrotation Yrotation
                JOINT LeftToeBase
                {
                    OFFSET -0.000000 -5.744446 13.256415
                    CHANNELS 3 Zrotation Xrotation Yrotation
                    End Site
                    {
                        OFFSET -0.000000 0.000000 3.535044
                    }
                }
            }
        }
    }
    JOINT RightUpLeg
    {
        OFFSET -8.837609 0.000000 0.000000
        CHANNELS 3 Zrotation Xrotation Yrotation
        JOINT RightLeg
        {
            OFFSET -0.000000 -41.345005 0.000000
            CHANNELS 3 Zrotation Xrotation Yrotation
            JOINT RightFoot
            {
                OFFSET -0.000000 -35.500874 0.000000
                CHANNELS 3 Zrotation Xrotation Yrotation
                JOINT RightToeBase
                {
                    OFFSET -0.000000 -5.744446 13.256415
                    CHANNELS 3 Zrotation Xrotation Yrotation
                    End Site
                    {
                        OFFSET -0.000000 0.000000 3.535044
                    }
                }
            }
        }
    }
}
MOTION
Frames:    7
Frame Time:    0.010000
0.383832    82.341415    -69.225899    4.001767    3.141309    2.825915    -4.713804    -15.144683    -0.822322    -0.417410    3.506352    -0.182550    1.468940    31.617373    -2.588784    3.019506    -12.128394    -1.728738    20.247944    2.520026    7.690650    -27.192688    8.785254    -13.050216    6.153256    -9.496292    -12.264868    -32.680130    -8.602088    -0.831308    -14.800796    1.241710    11.101713    21.499628    5.971191    9.391911    -3.510941    -5.332213    0.976272    18.230497    -2.764445    15.756087    -3.735462    6.763914    -2.836936    -2.801302    -9.306672    -8.307129    4.086413    2.426086    -2.471985    0.560685    -1.684217    -0.792990    -6.800899    6.433654    -0.948755    7.644266    -9.239925    1.799862    -3.913749    -4.167978    -11.065221    -0.578107    2.754550    1.007184    
0.401975    82.340172    -69.230995    3.992374    3.131953    2.833324    -4.699581    -15.135780    -0.814209    -0.412499    3.501406    -0.176883    1.481273    31.597122    -2.572253    3.007396    -12.101077    -1.713664    20.225910    2.535399    7.686361    -27.205139    8.751757    -13.047855    6.082786    -9.344017    -12.134468    -31.802145    -8.418400    -1.017002    -14.820185    1.230398    11.091397    21.455011    6.069027    9.350216    -3.488464    -5.433959    1.011219    18.217981    -2.869898    15.740936    -3.741008    6.770726    -2.837130    -2.801464    -9.306399    -8.315178    4.080487    2.433174    -2.450026    0.565472    -1.724033    -0.799957    -6.806129    6.438092    -0.950927    7.648061    -9.236448    1.804455    -3.897773    -4.174315    -11.091822    -0.602621    2.742294    1.050022    
0.422239    82.339294    -69.233727    3.989799    3.124270    2.837800    -4.690141    -15.133716    -0.804688    -0.414901    3.500191    -0.168761    1.488139    31.590435    -2.568952    3.027243    -12.090541    -1.704715    20.225815    2.547940    7.680785    -27.245293    8.715746    -13.045201    6.074962    -9.320945    -12.113114    -31.769951    -8.399064    -1.011543    -14.832553    1.239133    11.066931    21.430502    6.013834    9.332721    -3.500144    -5.517141    1.033443    18.297724    -2.940638    15.744842    -3.752747    6.780923    -2.859251    -2.783997    -9.326218    -8.362433    4.456411    2.275108    -2.487497    0.541307    -1.358871    -0.764053    -6.818210    6.440516    -0.939546    7.653663    -9.227302    1.805954    -3.906554    -4.178427    -11.116269    -0.585153    2.733663    1.019675    
0.437882    82.340836    -69.239464    3.976066    3.130622    2.846792    -4.671934    -15.138831    -0.802206    -0.420778    3.485351    -0.168241    1.536776    31.612514    -2.584558    2.985374    -12.116153    -1.722821    20.200630    2.560289    7.688094    -27.234106    8.687608    -13.046822    6.049745    -9.296395    -12.086885    -31.755737    -8.380745    -1.004073    -14.837613    1.254383    11.044500    21.409117    5.929480    9.326259    -3.518300    -5.557767    1.047183    18.363480    -2.976100    15.716775    -3.623228    6.666585    -3.403646    -2.985892    -9.097248    -8.235063    4.292809    2.289229    -1.988155    0.618192    -1.554488    -0.873623    -6.815914    6.425600    -0.925475    7.640677    -9.220901    1.794761    -3.836639    -4.196772    -11.122924    -0.594448    2.745110    1.035752    
0.456161    82.339226    -69.243034    3.976338    3.118573    2.852286    -4.653257    -15.120524    -0.794590    -0.453663    3.463819    -0.162982    1.559772    31.627216    -2.587863    3.006163    -12.119349    -1.717334    20.203993    2.559358    7.679046    -27.246313    8.702048    -13.024178    6.066871    -9.303891    -12.048278    -31.793436    -8.382722    -1.023329    -14.829592    1.273827    11.019712    21.396004    5.853128    9.313108    -3.529757    -5.611890    1.096514    18.387999    -3.031693    15.678055    -3.760392    6.775243    -2.892645    -2.799160    -9.306311    -8.316568    4.522437    2.242695    -2.487473    0.537993    -1.383555    -0.759490    -6.831805    6.429368    -0.909120    7.663792    -9.193297    1.766999    -3.870074    -4.221986    -11.169672    -0.635180    2.782037    1.106302    
0.471738    82.340134    -69.247345    3.965330    3.118053    2.858802    -4.646436    -15.120918    -0.798884    -0.454375    3.448071    -0.168329    1.570556    31.645571    -2.594769    3.023808    -12.124393    -1.718140    20.210672    2.562154    7.682199    -27.276327    8.709201    -13.000574    6.072696    -9.306763    -12.009245    -31.817375    -8.385554    -1.027960    -14.835145    1.280373    11.016325    21.399708    5.746987    9.297597    -3.512881    -5.562733    1.058541    18.351559    -2.976870    15.750876    -3.624198    6.664392    -3.454660    -3.010798    -9.077415    -8.232803    4.330660    2.271034    -1.937150    0.631965    -1.462635    -0.892582    -6.832209    6.415890    -0.906438    7.646621    -9.175020    1.836329    -3.851178    -4.206469    -11.192395    -0.582464    2.707311    1.015264    
0.488646    82.340073    -69.250870    3.966304    3.105396    2.861350    -4.625774    -15.106059    -0.794717    -0.498012    3.429856    -0.166350    1.608319    31.661886    -2.595841    3.022690    -12.125487    -1.713423    20.228588    2.532934    7.692357    -27.298378    8.745270    -12.975516    6.086097    -9.328565    -11.959340    -31.830278    -8.399468    -1.060193    -14.813274    1.296342    11.005045    21.386736    5.684924    9.294322    -3.518943    -5.581607    1.086656    18.289669    -3.011406    15.703627    -3.638712    6.671403    -3.470440    -3.004228    -9.077497    -8.226726    4.179708    2.337092    -1.921754    0.603567    -1.673370    -0.853581    -6.847778    6.417613    -0.877323    7.657131    -9.155808    1.790115    -3.829212    -4.242166    -11.223443    -0.625201    2.746158    1.089320    
